<svg id="SvgjsSvg1016" width="288" height="288" xmlns="http://www.w3.org/2000/svg" version="1.1" xmlns:xlink="http://www.w3.org/1999/xlink" xmlns:svgjs="http://svgjs.com/svgjs"><defs id="SvgjsDefs1017"></defs><g id="SvgjsG1018" transform="matrix(0.9167,0,0,0.9167,11.995199771209712,11.995200000000011)"><svg xmlns="http://www.w3.org/2000/svg" width="288" height="288" viewBox="0 0 25 25"><g fill="#ffffff" transform="translate(3.996 -1031.366)" class="colorfff svgShape"><circle cx="8.504" cy="1043.866" r="12.5" fill="#758bff" fill-rule="evenodd" class="color424242 svgShape"></circle><path style="line-height:normal;text-indent:0;text-align:start;text-decoration-line:none;text-decoration-style:solid;text-decoration-color:#000;text-transform:none;block-progression:tb;isolation:auto;mix-blend-mode:normal" fill="#5c7ae9" d="M 15.525391 24.615234 A 12.5 12.5 0 0 0 15.84375 24.544922 A 12.5 12.5 0 0 0 17.029297 24.150391 A 12.5 12.5 0 0 0 18.169922 23.640625 A 12.5 12.5 0 0 0 19.253906 23.017578 A 12.5 12.5 0 0 0 20.269531 22.291016 A 12.5 12.5 0 0 0 21.208984 21.466797 A 12.5 12.5 0 0 0 22.060547 20.552734 A 12.5 12.5 0 0 0 22.816406 19.558594 A 12.5 12.5 0 0 0 23.470703 18.492188 A 12.5 12.5 0 0 0 24.013672 17.367188 A 12.5 12.5 0 0 0 24.441406 16.193359 A 12.5 12.5 0 0 0 24.75 14.982422 A 12.5 12.5 0 0 0 24.9375 13.748047 A 12.5 12.5 0 0 0 25 12.5 A 12.5 12.5 0 0 0 24.96875 11.615234 A 12.5 12.5 0 0 0 24.919922 11.212891 L 19.363281 5.65625 L 15.115234 7.0722656 L 8.6640625 13.523438 L 8.65625 13.513672 L 7.3183594 14.849609 C 6.8930205 15.275009 6.8930205 15.982803 7.3183594 16.408203 L 8.5898438 17.679688 L 15.525391 24.615234 z " color="#000" font-family="sans-serif" font-weight="400" transform="translate(-3.996 1031.366)" class="color1f212a svgShape"></path><path style="line-height:normal;text-indent:0;text-align:start;text-decoration-line:none;text-decoration-style:solid;text-decoration-color:#000;text-transform:none;block-progression:tb;isolation:auto;mix-blend-mode:normal" d="m 14.376953,1.6601562 -4.248047,1.4160157 -6.4511716,6.4511719 -0.00781,-0.00781 -1.3378907,1.3359382 c -0.4253389,0.4254 -0.4253389,1.133193 0,1.558593 l 1.2714844,1.271485 c 0.212695,0.2127 0.4961659,0.318359 0.7792969,0.318359 0.283131,0 0.5666019,-0.105659 0.7792969,-0.318359 l 1.3359375,-1.337891 -0.00391,-0.0039 0.00781,-0.0078 6.4589846,-6.4257822 1.416015,-4.25 z m -1.582031,1.5820313 -0.59375,1.7832031 -1.189453,-1.1894531 1.783203,-0.59375 z m -2.603516,1.1875 L 11.605469,5.84375 6.1464844,11.279297 4.7324219,9.8867188 10.191406,4.4296875 Z m -6.1718748,6.1542965 1.4238282,1.404297 -0.9882813,0.990235 c -0.04592,0.046 -0.098609,0.046 -0.1445312,0 L 3.0410156,11.707031 c -0.04597,-0.046 -0.04597,-0.09893 0,-0.144531 l 0.9785156,-0.978516 z" color="#000" font-family="sans-serif" font-weight="400" overflow="visible" transform="translate(.99 1035.362)" fill="#ffffff" class="color000 svgShape"></path></g></svg></g></svg>